<?xml version="1.0" encoding="utf-8"?>
<!-- Generator: Adobe Illustrator 27.2.0, SVG Export Plug-In . SVG Version: 6.00 Build 0)  -->
<svg version="1.1" id="圖層_1" xmlns="http://www.w3.org/2000/svg" xmlns:xlink="http://www.w3.org/1999/xlink" x="0px" y="0px"
	 viewBox="0 0 100 125" style="enable-background:new 0 0 100 125;" xml:space="preserve">
<path d="M27.2,46.2l17.5,35.9c-0.7,0.1-1.3,0.1-2,0.2c-1.5,0.2-3,0.5-4.4,0.9c-1.3,0.4-2.6,1-3.7,1.8c-0.4,0.3-0.7,0.8-0.7,1.3
	c0,0.5,0.2,1,0.7,1.3c1.1,0.8,2.4,1.4,3.7,1.8c1.4,0.4,3,0.7,4.4,0.9c2.1,0.2,4.1,0.4,6.2,0.4c2.1,0,4.1-0.1,6.2-0.4
	c1.5-0.2,3-0.5,4.5-0.9c1.3-0.4,2.6-1,3.7-1.8c0.4-0.3,0.7-0.8,0.7-1.3c0-0.5-0.3-1-0.7-1.3c-1.1-0.8-2.4-1.4-3.7-1.8
	c-1.5-0.4-3-0.7-4.5-0.9c-0.7-0.1-1.3-0.1-2-0.2l17.5-35.9v0c5.8-12,0.9-26.5-11.1-32.3c-12-5.8-26.5-0.8-32.3,11.1
	C24,31.8,24,39.5,27.2,46.2C27.2,46.2,27.2,46.2,27.2,46.2z M30.7,26.8c4.9-10.1,17.1-14.2,27.1-9.3c10,4.9,14.2,17.1,9.3,27.1l0,0
	l0,0L49,81.9L30.7,44.5c0,0,0,0,0,0C28,38.9,28,32.4,30.7,26.8z"/>
<path d="M49,52.7c9.4,0,17-7.6,17-17c0-9.4-7.6-17-17-17c-9.4,0-17,7.6-17,17C31.9,45,39.6,52.7,49,52.7z"/>
</svg>
